# xmcd CD database file
#
# Track frame offsets:
#	150
#	12912
#	25501
#	38450
#	51105
#	63693
#	75391
#	91333
#	104756
#	117376
#	129269
#	140191
#
# Disc length: 2042 seconds
#
# Revision: 0
# Processed by: cddbd v1.5.2PL0 Copyright (c) Steve Scherf et al.
# Submitted via: CDex 1.70beta2
#
DISCID=9907f80c
DTITLE=Willie Bobo - Let's Go Bobo!
DYEAR=1964
DGENRE=Jazz
TTITLE0=Let's Go Bobo! 
TTITLE1=Caribe
TTITLE2=Twist the Monkey's Tail 
TTITLE3=Tell It Like It Is 
TTITLE4=Get Crackin' 
TTITLE5=Wild Rice 
TTITLE6=Hip Monkey 
TTITLE7=Trinidad 
TTITLE8=Timbale Groove 
TTITLE9=Go! Go! Go! 
TTITLE10=Be's the Other Way 
TTITLE11=Bobo 
EXTD=YEAR: 1964
EXTT0=
EXTT1=
EXTT2=
EXTT3=
EXTT4=
EXTT5=
EXTT6=
EXTT7=
EXTT8=
EXTT9=
EXTT10=
EXTT11=
PLAYORDER=
